HIERARCHY
ROOT hip
{
  OFFSET 0 0 0
  CHANNELS 6 Xposition Yposition Zposition Zrotation Yrotation Xrotation
  JOINT abdomen
  {
    OFFSET 0 20.6881 -0.73152
    CHANNELS 3 Zrotation Xrotation Yrotation
    JOINT chest
    {
      OFFSET 0 11.7043 -0.48768
      CHANNELS 3 Zrotation Xrotation Yrotation
      JOINT neck
      {
        OFFSET 0 22.1894 -2.19456
        CHANNELS 3 Zrotation Xrotation Yrotation
        JOINT head
        {
          OFFSET -0.24384 7.07133 1.2192
          CHANNELS 3 Zrotation Xrotation Yrotation
          JOINT leftEye
          {
            OFFSET 4.14528 8.04674 8.04672
            CHANNELS 3 Zrotation Xrotation Yrotation
            End Site
            {
              OFFSET 1 0 0
            }
          }
          JOINT rightEye
          {
            OFFSET -3.6576 8.04674 8.04672
            CHANNELS 3 Zrotation Xrotation Yrotation
            End Site
            {
              OFFSET 1 0 0
            }
          }
        }
      }
      JOINT rCollar
      {
        OFFSET -2.68224 19.2634 -4.8768
        CHANNELS 3 Zrotation Xrotation Yrotation
        JOINT rShldr
        {
          OFFSET -8.77824 -1.95073 1.46304
          CHANNELS 3 Zrotation Xrotation Yrotation
          JOINT rForeArm
          {
            OFFSET -28.1742 -1.7115 0.48768
            CHANNELS 3 Zrotation Xrotation Yrotation
            JOINT rHand
            {
              OFFSET -22.5879 0.773209 7.07136
              CHANNELS 3 Zrotation Xrotation Yrotation
              JOINT rThumb1
              {
                OFFSET -1.2192 -0.487915 3.41376
                CHANNELS 3 Zrotation Xrotation Yrotation
                JOINT rThumb2
                {
                  OFFSET -3.37035 -0.52449 3.41376
                  CHANNELS 3 Zrotation Xrotation Yrotation
                  End Site
                  {
                    OFFSET -1.78271 -1.18214 1.43049
                  }
                }
              }
              JOINT rIndex1
              {
                OFFSET -7.75947 0.938293 5.60832
                CHANNELS 3 Zrotation Xrotation Yrotation
                JOINT rIndex2
                {
                  OFFSET -2.54057 -0.884171 1.56538
                  CHANNELS 3 Zrotation Xrotation Yrotation
                  End Site
                  {
                    OFFSET -1.62519 -0.234802 1.16502
                  }
                }
              }
              JOINT rMid1
              {
                OFFSET -8.24714 1.18213 3.41376
                CHANNELS 3 Zrotation Xrotation Yrotation
                JOINT rMid2
                {
                  OFFSET -3.10165 -0.590103 1.0647
                  CHANNELS 3 Zrotation Xrotation Yrotation
                  End Site
                  {
                    OFFSET -2.48547 -0.328903 0.83742
                  }
                }
              }
              JOINT rRing1
              {
                OFFSET -8.82822 0.546677 1.51678
                CHANNELS 3 Zrotation Xrotation Yrotation
                JOINT rRing2
                {
                  OFFSET -2.60934 -0.819778 -0.0198488
                  CHANNELS 3 Zrotation Xrotation Yrotation
                  End Site
                  {
                    OFFSET -2.33842 -0.294052 0.168128
                  }
                }
              }
              JOINT rPinky1
              {
                OFFSET -8.27202 -0.0477905 -0.4584
                CHANNELS 3 Zrotation Xrotation Yrotation
                JOINT rPinky2
                {
                  OFFSET -1.82734 -0.647385 -0.700984
                  CHANNELS 3 Zrotation Xrotation Yrotation
                  End Site
                  {
                    OFFSET -1.69225 -0.51767 -0.607171
                  }
                }
              }
            }
          }
        }
      }
      JOINT lCollar
      {
        OFFSET 2.68224 19.2634 -4.8768
        CHANNELS 3 Zrotation Xrotation Yrotation
        JOINT lShldr
        {
          OFFSET 8.77824 -1.95073 1.46304
          CHANNELS 3 Zrotation Xrotation Yrotation
          JOINT lForeArm
          {
            OFFSET 28.1742 -1.7115 0.48768
            CHANNELS 3 Zrotation Xrotation Yrotation
            JOINT lHand
            {
              OFFSET 22.5879 0.773209 7.07136
              CHANNELS 3 Zrotation Xrotation Yrotation
              JOINT lThumb1
              {
                OFFSET 1.2192 -0.487915 3.41376
                CHANNELS 3 Zrotation Xrotation Yrotation
                JOINT lThumb2
                {
                  OFFSET 3.37035 -0.52449 3.41376
                  CHANNELS 3 Zrotation Xrotation Yrotation
                  End Site
                  {
                    OFFSET 1.78271 -1.18214 1.43049
                  }
                }
              }
              JOINT lIndex1
              {
                OFFSET 7.75947 0.938293 5.60832
                CHANNELS 3 Zrotation Xrotation Yrotation
                JOINT lIndex2
                {
                  OFFSET 2.54057 -0.884171 1.56538
                  CHANNELS 3 Zrotation Xrotation Yrotation
                  End Site
                  {
                    OFFSET 1.62519 -0.234802 1.16502
                  }
                }
              }
              JOINT lMid1
              {
                OFFSET 8.24714 1.18213 3.41376
                CHANNELS 3 Zrotation Xrotation Yrotation
                JOINT lMid2
                {
                  OFFSET 3.10165 -0.590103 1.0647
                  CHANNELS 3 Zrotation Xrotation Yrotation
                  End Site
                  {
                    OFFSET 2.48547 -0.328903 0.83742
                  }
                }
              }
              JOINT lRing1
              {
                OFFSET 8.82822 0.546677 1.51678
                CHANNELS 3 Zrotation Xrotation Yrotation
                JOINT lRing2
                {
                  OFFSET 2.60934 -0.819778 -0.0198488
                  CHANNELS 3 Zrotation Xrotation Yrotation
                  End Site
                  {
                    OFFSET 2.33842 -0.294052 0.168128
                  }
                }
              }
              JOINT lPinky1
              {
                OFFSET 8.27202 -0.0477905 -0.4584
                CHANNELS 3 Zrotation Xrotation Yrotation
                JOINT lPinky2
                {
                  OFFSET 1.82734 -0.647385 -0.700984
                  CHANNELS 3 Zrotation Xrotation Yrotation
                  End Site
                  {
                    OFFSET 1.69225 -0.51767 -0.607171
                  }
                }
              }
            }
          }
        }
      }
    }
  }
  JOINT rButtock
  {
    OFFSET -8.77824 4.35084 1.2192
    CHANNELS 3 Zrotation Xrotation Yrotation
    JOINT rThigh
    {
      OFFSET 0 -1.70687 -2.19456
      CHANNELS 3 Zrotation Xrotation Yrotation
      JOINT rShin
      {
        OFFSET 0 -36.8199 0.73152
        CHANNELS 3 Zrotation Xrotation Yrotation
        JOINT rFoot
        {
          OFFSET 0.73152 -45.1104 -5.12064
          CHANNELS 3 Zrotation Xrotation Yrotation
          End Site
          {
            OFFSET -1.1221 -3.69964 12.103
          }
        }
      }
    }
  }
  JOINT lButtock
  {
    OFFSET 8.77824 4.35084 1.2192
    CHANNELS 3 Zrotation Xrotation Yrotation
    JOINT lThigh
    {
      OFFSET 0 -1.70687 -2.19456
      CHANNELS 3 Zrotation Xrotation Yrotation
      JOINT lShin
      {
        OFFSET 0 -36.8199 0.73152
        CHANNELS 3 Zrotation Xrotation Yrotation
        JOINT lFoot
        {
          OFFSET -0.73152 -45.1104 -5.12064
          CHANNELS 3 Zrotation Xrotation Yrotation
          End Site
          {
            OFFSET 1.1221 -3.69964 12.103
          }
        }
      }
    }
  }
}
MOTION
Frames:	6
Frame Time:	0.00833333
6.13967 83.3054 -135.439 5.3354 7.7058 1.1876 -10.5276 10.4644 -0.21426 4.94788 -3.61224 -0.26875 -2.15999 -5.51907 -3.08615 0.0203357 -12.1521 -5.31113 -0.0 0.0 0.0 -0.0 0.0 0.0 -9.75534e-15 6.42258e-15 2.72902e-13 73.6822 6.07927 -0.475691 -11.0964 -4.8382 19.8692 -0.657917 -22.415 -3.323 -6.93507e-10 1.23641e-09 1.08896e-09 -1.21953e-09 2.14982e-09 1.87311e-09 -6.93504e-10 1.23641e-09 1.08895e-09 7.73091 5.47488 0.417314 -6.93507e-10 1.23641e-09 1.08896e-09 2.90554 0.965183 0.102902 -6.935e-10 1.23641e-09 1.08896e-09 10.2786 0.731801 0.0259123 -6.93505e-10 1.23641e-09 1.08897e-09 2.22167 -0.733487 -0.20892 -9.92459e-15 6.42256e-15 2.72718e-13 -78.1054 23.2443 1.66662 13.1522 -6.29026 -23.8634 0.0659813 7.3069 -1.03258 -1.24998e-09 -1.3088e-09 3.16991e-10 -2.15787e-09 -2.26136e-09 5.56883e-10 -1.24997e-09 -1.3088e-09 3.16998e-10 -7.73091 5.47488 -0.417314 -1.24997e-09 -1.3088e-09 3.16989e-10 -2.90554 0.965183 -0.102902 -1.24998e-09 -1.3088e-09 3.16993e-10 -10.2786 0.731801 -0.0259123 -1.24997e-09 -1.3088e-09 3.16989e-10 -2.22167 -0.733487 0.20892 -2.03217e-16 0.0 -3.88251e-19 -9.02507 -22.1757 -9.34724 -1.50915 65.3525 1.89138 -2.35965 -3.94428 -10.3913 2.03217e-16 0.0 3.88251e-19 -9.57594 -15.9065 4.49322 0.0587906 18.7417 0.0598725 -3.37031 -11.8876 -15.3102
6.14149 83.2648 -135.023 5.1621 7.9056 1.3475 -10.7032 10.46 -0.181835 4.95305 -3.75012 -0.253615 -2.67578 -4.95765 -2.5646 1.96541 -13.5559 -3.92801 -0.0 0.0 0.0 -0.0 0.0 0.0 -1.92831e-14 1.74923e-14 3.23721e-13 73.6831 6.35084 -0.833903 -11.4138 -5.04602 20.4811 -0.700074 -23.0623 -3.43044 -5.17584e-10 1.29579e-09 9.42252e-10 -9.14985e-10 2.25391e-09 1.62183e-09 -5.17581e-10 1.29579e-09 9.42243e-10 7.73091 5.47488 0.417314 -5.17584e-10 1.29579e-09 9.42255e-10 2.90554 0.965183 0.102902 -5.17578e-10 1.29579e-09 9.42251e-10 10.2786 0.731801 0.0259123 -5.17582e-10 1.29579e-09 9.42255e-10 2.22167 -0.733487 -0.20892 -1.94811e-14 1.74925e-14 3.23522e-13 -77.5886 23.5757 1.11402 13.1668 -6.30137 -23.8923 0.0640666 7.20343 -1.0178 -1.08303e-09 -1.26135e-09 5.79895e-10 -1.86711e-09 -2.17837e-09 1.01023e-09 -1.08303e-09 -1.26135e-09 5.79901e-10 -7.73091 5.47488 -0.417314 -1.08303e-09 -1.26135e-09 5.79891e-10 -2.90554 0.965183 -0.102902 -1.08304e-09 -1.26134e-09 5.79896e-10 -10.2786 0.731801 -0.0259123 -1.08302e-09 -1.26134e-09 5.79891e-10 -2.22167 -0.733487 0.20892 -2.03217e-16 0.0 -3.88251e-19 -9.13332 -23.0178 -9.2267 -1.49833 65.2796 1.89531 -2.50179 -4.61506 -10.4641 2.03217e-16 0.0 3.88251e-19 -9.6432 -15.6616 4.3137 0.0585278 19.349 0.028305 -3.43916 -12.3617 -15.0648
6.27955 83.166 -134.377 5.3331 8.1352 1.0113 -10.9054 10.5191 -0.349909 4.94148 -3.91408 -0.297142 -2.80318 -4.56882 -2.41807 2.66557 -14.0146 -3.53696 -0.0 0.0 0.0 -0.0 0.0 0.0 7.78023e-16 -1.25739e-14 3.67227e-13 73.6217 6.68376 -1.05065 -11.6534 -5.20646 20.9446 -0.734972 -23.5815 -3.51734 -3.11901e-10 1.16887e-09 1.29128e-09 -5.65525e-10 2.03959e-09 2.22787e-09 -3.11898e-10 1.16887e-09 1.29127e-09 7.73091 5.47488 0.417314 -3.119e-10 1.16886e-09 1.29128e-09 2.90554 0.965183 0.102902 -3.11896e-10 1.16886e-09 1.29128e-09 10.2786 0.731801 0.0259123 -3.119e-10 1.16886e-09 1.29128e-09 2.22167 -0.733487 -0.20892 5.83619e-16 -1.25738e-14 3.67075e-13 -77.139 23.6468 0.610569 13.1735 -6.30644 -23.9055 0.0625238 7.11717 -1.00548 -1.21448e-09 -1.77174e-09 2.74658e-10 -2.09603e-09 -3.06192e-09 4.83445e-10 -1.21448e-09 -1.77174e-09 2.74664e-10 -7.73091 5.47488 -0.417314 -1.21448e-09 -1.77174e-09 2.74655e-10 -2.90554 0.965183 -0.102902 -1.21449e-09 -1.77174e-09 2.74659e-10 -10.2786 0.731801 -0.0259123 -1.21447e-09 -1.77173e-09 2.74653e-10 -2.22167 -0.733487 0.20892 -2.03217e-16 0.0 -3.88251e-19 -9.4108 -23.7711 -9.14148 -1.477 65.1004 1.89037 -2.66156 -5.3298 -10.5868 2.03217e-16 0.0 3.88251e-19 -9.84757 -15.3563 4.1421 0.0589228 19.8988 -0.00260689 -3.50763 -12.8124 -14.8532
6.49937 83.076 -133.796 5.892 8.5911 0.853 -11.1309 10.6064 -0.609679 4.90207 -4.11794 -0.367234 -2.7064 -4.20747 -2.45662 2.70226 -14.0409 -3.65572 -0.0 0.0 0.0 -0.0 0.0 0.0 3.67634e-14 -6.54009e-14 4.10907e-13 73.5561 7.01157 -1.23966 -11.8496 -5.3413 21.3234 -0.763973 -24.0101 -3.5894 -5.4293e-11 9.48847e-10 1.90871e-09 -1.30085e-10 1.66687e-09 3.29861e-09 -5.42923e-11 9.48847e-10 1.9087e-09 7.73091 5.47488 0.417314 -5.42913e-11 9.48845e-10 1.90871e-09 2.90554 0.965183 0.102902 -5.42899e-11 9.48845e-10 1.90871e-09 10.2786 0.731801 0.0259123 -5.4294e-11 9.48847e-10 1.90871e-09 2.22167 -0.733487 -0.20892 3.65937e-14 -6.54011e-14 4.10841e-13 -76.7172 23.6126 0.163631 13.178 -6.30986 -23.9144 0.0607856 7.0178 -0.991299 -1.50775e-09 -2.62252e-09 -3.34685e-10 -2.60679e-09 -4.5352e-09 -5.67928e-10 -1.50775e-09 -2.62252e-09 -3.3468e-10 -7.73091 5.47488 -0.417314 -1.50775e-09 -2.62252e-09 -3.34688e-10 -2.90554 0.965183 -0.102902 -1.50776e-09 -2.62252e-09 -3.34685e-10 -10.2786 0.731801 -0.0259123 -1.50774e-09 -2.62252e-09 -3.34693e-10 -2.22167 -0.733487 0.20892 -2.03217e-16 0.0 -3.88251e-19 -9.79382 -24.4506 -9.07032 -1.44442 64.8057 1.87569 -2.84659 -6.08656 -10.7852 2.03217e-16 0.0 3.88251e-19 -10.14 -15.013 3.96721 0.0598989 20.4215 -0.0336373 -3.57317 -13.249 -14.6521
6.43657 83.0005 -133.223 5.4884 8.6593 0.6148 -11.3371 10.703 -0.898594 4.86347 -4.31163 -0.445585 -2.53483 -3.89302 -2.57102 2.46901 -13.8783 -3.97583 -0.0 0.0 0.0 -0.0 0.0 0.0 7.69184e-14 -1.17731e-13 4.32425e-13 73.4787 7.31559 -1.3837 -12.0344 -5.47151 21.6789 -0.789494 -24.3835 -3.65244 1.29009e-10 7.13306e-10 2.45861e-09 1.78623e-10 1.26544e-09 4.25126e-09 1.29008e-10 7.13304e-10 2.4586e-09 7.73091 5.47488 0.417314 1.29011e-10 7.13304e-10 2.45862e-09 2.90554 0.965183 0.102902 1.2901e-10 7.13303e-10 2.45861e-09 10.2786 0.731801 0.0259123 1.29006e-10 7.13305e-10 2.45861e-09 2.22167 -0.733487 -0.20892 7.67817e-14 -1.17731e-13 4.32442e-13 -76.3119 23.5385 -0.302739 13.1794 -6.311 -23.9173 0.0588965 6.90813 -0.975654 -1.77167e-09 -3.3694e-09 -9.69327e-10 -3.06699e-09 -5.82885e-09 -1.66321e-09 -1.77167e-09 -3.3694e-09 -9.69323e-10 -7.73091 5.47488 -0.417314 -1.77167e-09 -3.3694e-09 -9.6933e-10 -2.90554 0.965183 -0.102902 -1.77167e-09 -3.3694e-09 -9.69328e-10 -10.2786 0.731801 -0.0259123 -1.77166e-09 -3.3694e-09 -9.69338e-10 -2.22167 -0.733487 0.20892 -2.03217e-16 0.0 -3.88251e-19 -10.185 -25.0891 -8.9905 -1.4032 64.4076 1.85186 -3.03498 -6.81211 -11.0078 2.03217e-16 0.0 3.88251e-19 -10.4513 -14.665 3.76771 0.0615429 20.9265 -0.0647379 -3.61671 -13.6635 -14.4062
6.61825 82.9525 -132.678 5.8254 9.0209 0.6229 -11.4819 10.7905 -1.15397 4.85481 -4.44508 -0.513849 -2.44082 -3.6447 -2.65227 2.36079 -13.7704 -4.18861 -0.0 0.0 0.0 -0.0 0.0 0.0 1.09489e-13 -1.46306e-13 4.09447e-13 73.3813 7.57717 -1.46544 -12.2386 -5.6174 22.0727 -0.814383 -24.7368 -3.71255 1.11775e-10 5.3981e-10 2.60505e-09 1.47888e-10 9.65015e-10 4.503e-09 1.11774e-10 5.39809e-10 2.60504e-09 7.73091 5.47488 0.417314 1.11777e-10 5.39808e-10 2.60506e-09 2.90554 0.965183 0.102902 1.11775e-10 5.39808e-10 2.60505e-09 10.2786 0.731801 0.0259123 1.11771e-10 5.3981e-10 2.60505e-09 2.22167 -0.733487 -0.20892 1.0938e-13 -1.46307e-13 4.09496e-13 -75.9099 23.4884 -0.865309 13.1771 -6.30925 -23.9127 0.0568969 6.79094 -0.958944 -1.81505e-09 -3.56809e-09 -1.35046e-09 -3.1442e-09 -6.1735e-09 -2.32174e-09 -1.81505e-09 -3.56809e-09 -1.35046e-09 -7.73091 5.47488 -0.417314 -1.81505e-09 -3.56809e-09 -1.35046e-09 -2.90554 0.965183 -0.102902 -1.81506e-09 -3.56809e-09 -1.35046e-09 -10.2786 0.731801 -0.0259123 -1.81505e-09 -3.56809e-09 -1.35047e-09 -2.22167 -0.733487 0.20892 -2.03217e-16 0.0 -3.88251e-19 -10.4857 -25.72 -8.87903 -1.35612 63.918 1.81964 -3.20109 -7.43395 -11.2023 2.03217e-16 0.0 3.88251e-19 -10.7122 -14.3454 3.52225 0.0639609 21.4231 -0.0958665 -3.61779 -14.0481 -14.0596
